<?xml version="1.0" encoding="UTF-8" standalone="no"?>
<!-- Created with Inkscape (http://www.inkscape.org/) -->

<svg
   xmlns:dc="http://purl.org/dc/elements/1.1/"
   xmlns:cc="http://creativecommons.org/ns#"
   xmlns:rdf="http://www.w3.org/1999/02/22-rdf-syntax-ns#"
   xmlns:svg="http://www.w3.org/2000/svg"
   xmlns="http://www.w3.org/2000/svg"
   xmlns:xlink="http://www.w3.org/1999/xlink"
   xmlns:sodipodi="http://sodipodi.sourceforge.net/DTD/sodipodi-0.dtd"
   xmlns:inkscape="http://www.inkscape.org/namespaces/inkscape"
   version="1.1"
   width="16"
   height="16"
   id="svg3021"
   inkscape:version="0.48.4 r9939"
   sodipodi:docname="avatar-default-symbolic.svg">
  <sodipodi:namedview
     pagecolor="#ffffff"
     bordercolor="#666666"
     borderopacity="1"
     objecttolerance="10"
     gridtolerance="10"
     guidetolerance="10"
     inkscape:pageopacity="0"
     inkscape:pageshadow="2"
     inkscape:window-width="683"
     inkscape:window-height="480"
     id="namedview12"
     showgrid="true"
     inkscape:zoom="14.75"
     inkscape:cx="8"
     inkscape:cy="8"
     inkscape:window-x="0"
     inkscape:window-y="30"
     inkscape:window-maximized="0"
     inkscape:current-layer="svg3021">
    <inkscape:grid
       type="xygrid"
       id="grid3757" />
  </sodipodi:namedview>
  <defs
     id="defs3023">
    <linearGradient
       id="linearGradient3678-6">
      <stop
         id="stop3680-8"
         style="stop-color:#ffffff;stop-opacity:1"
         offset="0" />
      <stop
         id="stop3682-9"
         style="stop-color:#e6e6e6;stop-opacity:1"
         offset="1" />
    </linearGradient>
    <linearGradient
       x1="115.62145"
       y1="13.475067"
       x2="115.62145"
       y2="41.680771"
       id="linearGradient3009-0"
       xlink:href="#linearGradient3678-6"
       gradientUnits="userSpaceOnUse"
       gradientTransform="matrix(0.4342346,0,0,0.5947449,-34.884962,-1.1462819)" />
  </defs>
  <metadata
     id="metadata3026">
    <rdf:RDF>
      <cc:Work
         rdf:about="">
        <dc:format>image/svg+xml</dc:format>
        <dc:type
           rdf:resource="http://purl.org/dc/dcmitype/StillImage" />
        <dc:title />
      </cc:Work>
    </rdf:RDF>
  </metadata>
  <g
     transform="translate(2.3384945e-6,-47.999998)"
     id="layer1"
     style="color:#bebebe;fill:#ffffff;fill-opacity:1;fill-rule:nonzero;stroke:none;stroke-width:0.94116752999999997;marker:none;visibility:visible;display:inline;overflow:visible;enable-background:accumulate">
    <path
       d="M 8,0 C 3.5817218,0 0,3.581722 0,8 c 0,4.418278 3.5817218,8 8,8 4.418278,0 8,-3.581722 8,-8 C 16,3.581722 12.418278,0 8,0 z m 0,1 c 3.865993,0 7,3.1340066 7,7 0,1.9721789 -0.843959,3.727686 -2.15625,5 C 12.400465,11.273103 10.868974,10 9,10 L 7,10 C 5.1310259,10 3.5995352,11.273103 3.15625,13 1.8439594,11.727686 1,9.9721789 1,8 1,4.1340066 4.1340066,1 8,1 z"
       transform="translate(-2.3384945e-6,47.999998)"
       id="path3029"
       style="color:#bebebe;fill:#ffffff;fill-opacity:1;fill-rule:nonzero;stroke:none;stroke-width:0.94116752999999997;marker:none;visibility:visible;display:inline;overflow:visible;enable-background:accumulate" />
    <path
       d="m 7.9999979,51.249998 c -1.7949253,0 -3.2499999,1.39911 -3.2499999,3.125 0,1.72589 1.4550746,3.125 3.2499999,3.125 1.7949253,0 3.2500001,-1.39911 3.2500001,-3.125 0,-1.72589 -1.4550748,-3.125 -3.2500001,-3.125 z"
       id="rect3049"
       style="color:#bebebe;fill:#ffffff;fill-opacity:1;fill-rule:nonzero;stroke:none;stroke-width:0.94116752999999997;marker:none;visibility:visible;display:inline;overflow:visible;enable-background:accumulate" />
  </g>
</svg>
